<svg data-v-fde0c5aa="" xmlns="http://www.w3.org/2000/svg" viewBox="0 0 300 300" class="font"><!----><defs data-v-fde0c5aa=""><!----></defs><rect data-v-fde0c5aa="" fill="transparent" x="0" y="0" width="300px" height="300px" class="logo-background-square"></rect><defs data-v-fde0c5aa=""><linearGradient data-v-fde0c5aa="" gradientTransform="rotate(25)" id="d3472411-cf0d-4979-a5f1-8c3324ae33a3" x1="0%" y1="0%" x2="100%" y2="0%"><stop data-v-fde0c5aa="" offset="0%" stop-color="#0015D6" stop-opacity="1"></stop><stop data-v-fde0c5aa="" offset="100%" stop-color="#0989FB" stop-opacity="1"></stop></linearGradient></defs><g data-v-fde0c5aa="" id="553dd43c-aeb6-476e-b8c3-a8e84703ebee" fill="url(#d3472411-cf0d-4979-a5f1-8c3324ae33a3)" transform="matrix(4.185692432492888,0,0,4.185692432492888,38.82800611391226,105.8618749759132)"><path d="M0.28 11.27L0.28 11.27Q0.28 11.12 0.44 11.03L0.44 11.03L1.05 10.68Q1.14 10.62 1.22 10.62L1.22 10.62Q1.35 10.62 1.45 10.79L1.45 10.79Q2.38 12.21 3.53 12.92Q4.68 13.64 5.92 13.64L5.92 13.64Q6.81 13.64 7.31 13.23Q7.82 12.83 7.82 12.18L7.82 12.18Q7.82 11.97 7.78 11.78Q7.73 11.59 7.66 11.45Q7.58 11.31 7.45 11.17Q7.33 11.04 7.20 10.94Q7.08 10.85 6.88 10.75Q6.69 10.66 6.54 10.60Q6.38 10.53 6.14 10.46Q5.89 10.38 5.72 10.34Q5.54 10.29 5.27 10.21Q5.00 10.14 4.83 10.08L4.83 10.08Q3.90 9.81 3.21 9.46Q2.52 9.12 2.13 8.79Q1.74 8.46 1.50 8.07Q1.26 7.68 1.19 7.36Q1.12 7.05 1.12 6.68L1.12 6.68Q1.12 5.51 2.08 4.83Q3.04 4.14 4.66 4.14L4.66 4.14Q5.35 4.14 6.02 4.36Q6.69 4.57 7.06 4.79L7.06 4.79Q7.11 4.81 7.14 4.81L7.14 4.81Q7.23 4.81 7.23 4.69L7.23 4.69Q7.23 4.59 7.17 4.40L7.17 4.40Q7.15 4.33 7.15 4.27L7.15 4.27Q7.15 4.06 7.40 4.06L7.40 4.06L7.92 4.06Q8.17 4.06 8.26 4.29L8.26 4.29L9.24 6.80Q9.30 6.95 9.30 6.99L9.30 6.99Q9.30 7.12 9.13 7.21L9.13 7.21L8.66 7.46Q8.58 7.50 8.50 7.50L8.50 7.50Q8.39 7.50 8.26 7.35L8.26 7.35Q7.42 6.30 6.51 5.78Q5.61 5.27 4.84 5.27L4.84 5.27Q4.55 5.27 4.31 5.32Q4.06 5.37 3.83 5.50Q3.60 5.63 3.47 5.88Q3.34 6.13 3.34 6.47L3.34 6.47Q3.34 6.78 3.53 7.04Q3.71 7.31 4.05 7.50Q4.38 7.70 4.73 7.84Q5.09 7.98 5.54 8.11L5.54 8.11Q6.10 8.27 6.46 8.38Q6.83 8.50 7.33 8.69Q7.84 8.89 8.17 9.06Q8.49 9.24 8.85 9.51Q9.21 9.78 9.42 10.06Q9.63 10.35 9.77 10.73Q9.91 11.12 9.91 11.55L9.91 11.55Q9.91 12.97 8.81 13.86Q7.72 14.75 5.84 14.75L5.84 14.75Q4.59 14.75 3.55 14.24L3.55 14.24Q3.45 14.19 3.38 14.19L3.38 14.19Q3.19 14.19 3.28 14.49L3.28 14.49Q3.31 14.57 3.31 14.66L3.31 14.66Q3.31 14.82 3.08 14.81L3.08 14.81L2.38 14.81Q2.13 14.81 2.03 14.62L2.03 14.62L0.33 11.44Q0.28 11.35 0.28 11.27ZM9.92 8.26L9.92 8.26L9.92 7.85Q9.92 7.64 10.13 7.64L10.13 7.64L13.36 7.64Q13.57 7.64 13.57 7.85L13.57 7.85L13.57 8.26Q13.57 8.48 13.36 8.48L13.36 8.48L13.34 8.48Q12.89 8.48 12.89 8.84L12.89 8.84Q12.89 9.10 13.21 9.80L13.21 9.80L14.14 11.85L15.16 9.77Q15.50 9.06 15.50 8.78L15.50 8.78Q15.50 8.48 15.18 8.48L15.18 8.48L14.94 8.48Q14.72 8.48 14.72 8.26L14.72 8.26L14.72 7.85Q14.72 7.64 14.94 7.64L14.94 7.64L17.64 7.64Q17.85 7.64 17.85 7.85L17.85 7.85L17.85 8.26Q17.85 8.48 17.64 8.48L17.64 8.48L17.44 8.48Q17.21 8.48 17.04 8.66Q16.86 8.84 16.63 9.35L16.63 9.35L12.56 17.53Q12.48 17.71 12.28 17.62L12.28 17.62L11.57 17.26Q11.37 17.17 11.46 16.98L11.46 16.98L13.03 13.62L10.97 9.36Q10.71 8.82 10.56 8.65Q10.42 8.48 10.17 8.48L10.17 8.48L10.13 8.48Q9.92 8.48 9.92 8.26ZM17.86 14.43L17.86 14.43L17.86 14.01Q17.86 13.80 18.06 13.80L18.06 13.80Q18.56 13.79 18.83 13.43L18.83 13.43Q19.08 13.07 19.08 12.52L19.08 12.52Q19.08 12.50 19.08 12.47L19.08 12.47L19.08 7.23Q19.08 6.88 19.06 6.66Q19.03 6.43 18.96 6.18Q18.88 5.93 18.70 5.78Q18.53 5.64 18.25 5.61L18.25 5.61Q18.07 5.59 18.09 5.43L18.09 5.43L18.09 4.96Q18.09 4.87 18.13 4.84Q18.18 4.81 18.29 4.77L18.29 4.77Q19.84 4.25 20.92 3.47L20.92 3.47Q20.96 3.45 20.98 3.45L20.98 3.45L21.01 3.45Q21.03 3.45 21.05 3.47L21.05 3.47L21.05 12.47Q21.05 13.06 21.31 13.43Q21.58 13.80 22.07 13.80L22.07 13.80Q22.29 13.80 22.29 14.01L22.29 14.01L22.29 14.43Q22.29 14.64 22.07 14.64L22.07 14.64L18.06 14.64Q17.86 14.64 17.86 14.43ZM23.02 14.43L23.02 14.43L23.02 14.01Q23.02 13.80 23.23 13.80L23.23 13.80Q23.73 13.80 23.99 13.43L23.99 13.43Q24.24 13.08 24.24 12.53L24.24 12.53Q24.24 12.50 24.24 12.47L24.24 12.47L24.24 10.08Q24.24 9.86 24.24 9.74Q24.23 9.63 24.22 9.43Q24.20 9.24 24.16 9.13Q24.12 9.02 24.05 8.88Q23.98 8.74 23.87 8.66Q23.77 8.59 23.60 8.54Q23.44 8.48 23.23 8.48Q23.02 8.48 23.02 8.27L23.02 8.27L23.02 7.85Q23.02 7.64 23.23 7.64L23.23 7.64L24.27 7.64L24.26 7.53Q24.26 6.99 24.35 6.46Q24.44 5.93 24.67 5.37Q24.90 4.82 25.25 4.40Q25.59 3.98 26.16 3.71Q26.72 3.44 27.43 3.44L27.43 3.44Q28.50 3.44 29.07 3.85Q29.63 4.27 29.63 4.93L29.63 4.93Q29.63 5.25 29.48 5.63L29.48 5.63Q29.40 5.83 29.13 5.89L29.13 5.89L27.67 6.22L27.63 6.23Q27.55 6.23 27.53 6.13Q27.51 6.04 27.57 5.94L27.57 5.94Q27.83 5.44 27.83 5.02L27.83 5.02Q27.83 4.64 27.63 4.42Q27.44 4.20 27.17 4.20L27.17 4.20Q26.83 4.20 26.58 4.52L26.58 4.52Q26.34 4.82 26.24 5.35Q26.14 5.88 26.13 6.73L26.13 6.73L26.13 7.64L28.01 7.64Q28.22 7.64 28.22 7.85L28.22 7.85L28.22 8.46Q28.22 8.67 28.01 8.67L28.01 8.67L26.14 8.67L26.14 12.47Q26.14 13.06 26.41 13.43Q26.67 13.80 27.17 13.80L27.17 13.80Q27.38 13.80 27.38 14.01L27.38 14.01L27.38 14.43Q27.38 14.64 27.17 14.64L27.17 14.64L23.23 14.64Q23.02 14.64 23.02 14.43ZM28.36 11.13L28.36 11.13Q28.36 10.19 28.63 9.47Q28.90 8.75 29.37 8.32Q29.83 7.90 30.41 7.68Q30.98 7.46 31.64 7.46L31.64 7.46Q33.01 7.46 33.91 8.28L33.91 8.28Q34.07 8.21 34.21 8.15Q34.35 8.08 34.48 8.01Q34.60 7.94 34.69 7.90Q34.77 7.85 34.88 7.78Q34.99 7.71 35.02 7.69Q35.06 7.66 35.17 7.58Q35.28 7.50 35.29 7.49L35.29 7.49Q35.33 7.46 35.36 7.46L35.36 7.46L35.39 7.46Q35.40 7.46 35.40 7.49L35.40 7.49L35.40 12.05Q35.41 12.34 35.44 12.54Q35.48 12.75 35.56 12.95Q35.65 13.15 35.82 13.27Q35.98 13.39 36.23 13.42L36.23 13.42Q36.41 13.44 36.39 13.60L36.39 13.60L36.39 14.08Q36.39 14.26 36.19 14.26L36.19 14.26Q35.55 14.26 35.03 14.35Q34.51 14.44 34.27 14.53Q34.03 14.62 33.61 14.80L33.61 14.80Q33.56 14.83 33.50 14.83L33.50 14.83L33.46 14.83Q33.44 14.83 33.44 14.78L33.44 14.78L33.61 13.54Q33.53 13.72 33.40 13.90Q33.27 14.09 33.03 14.31Q32.79 14.54 32.38 14.68Q31.97 14.83 31.47 14.83L31.47 14.83Q31.07 14.83 30.66 14.71Q30.24 14.59 29.83 14.30Q29.41 14.01 29.09 13.60Q28.77 13.19 28.56 12.55Q28.36 11.91 28.36 11.13ZM30.17 10.68L30.17 10.68Q30.17 12.01 30.70 12.80Q31.23 13.59 32.10 13.59L32.10 13.59Q32.40 13.59 32.64 13.49Q32.88 13.40 33.02 13.27Q33.17 13.13 33.27 13.00Q33.37 12.86 33.41 12.76L33.41 12.76L33.45 12.67L33.45 9.86Q33.40 9.61 33.31 9.39Q33.22 9.16 33.04 8.92Q32.87 8.68 32.58 8.54Q32.28 8.39 31.89 8.39Q31.50 8.39 31.19 8.52Q30.88 8.65 30.70 8.87Q30.51 9.08 30.39 9.38Q30.26 9.68 30.21 9.99Q30.17 10.31 30.17 10.68ZM36.70 11.08L36.70 11.08Q36.70 10.33 36.89 9.71Q37.08 9.10 37.40 8.69Q37.72 8.29 38.15 8.01Q38.59 7.73 39.06 7.61Q39.53 7.49 40.04 7.49L40.04 7.49Q40.57 7.49 41.05 7.67Q41.52 7.85 41.86 8.13Q42.19 8.42 42.43 8.78Q42.68 9.14 42.80 9.50Q42.92 9.86 42.92 10.19L42.92 10.19Q42.92 10.31 42.80 10.36L42.80 10.36L38.74 12.14Q39.01 12.79 39.54 13.22Q40.08 13.64 40.84 13.64L40.84 13.64Q41.31 13.64 41.79 13.38Q42.27 13.13 42.62 12.61L42.62 12.61Q42.66 12.55 42.74 12.55L42.74 12.55Q42.83 12.55 43.30 12.82L43.30 12.82Q43.35 12.86 43.35 12.93L43.35 12.93Q43.35 13.02 43.26 13.18L43.26 13.18Q42.38 14.81 40.46 14.81L40.46 14.81Q39.33 14.81 38.47 14.30Q37.60 13.79 37.15 12.94Q36.70 12.10 36.70 11.08ZM38.78 9.05Q38.44 9.50 38.44 10.20Q38.44 10.90 38.57 11.27L38.57 11.27L40.82 10.13Q40.82 9.47 40.50 9.03Q40.18 8.59 39.70 8.59L39.70 8.59Q39.13 8.59 38.78 9.05ZM43.63 14.43L43.63 14.43L43.63 14.01Q43.63 13.80 43.84 13.80L43.84 13.80L43.87 13.80Q44.37 13.80 44.63 13.43Q44.89 13.06 44.89 12.47L44.89 12.47L44.89 10.71Q44.89 10.37 44.87 10.14Q44.84 9.92 44.77 9.67Q44.69 9.41 44.52 9.27Q44.34 9.13 44.06 9.10L44.06 9.10Q43.89 9.08 43.90 8.92L43.90 8.92L43.90 8.44Q43.90 8.29 44.10 8.26L44.10 8.26Q44.99 8.11 45.75 7.81Q46.51 7.50 46.87 7.24L46.87 7.24Q46.92 7.21 46.94 7.21L46.94 7.21L46.97 7.21Q46.98 7.21 46.98 7.23L46.98 7.23L46.74 9.06Q47.74 7.46 49.16 7.46L49.16 7.46Q49.74 7.46 50.17 7.62Q50.61 7.77 50.86 8.02Q51.12 8.27 51.27 8.64Q51.43 9.00 51.48 9.37Q51.54 9.73 51.54 10.17L51.54 10.17L51.54 12.47Q51.54 13.06 51.80 13.43Q52.07 13.80 52.57 13.80L52.57 13.80L52.63 13.80Q52.84 13.80 52.84 14.01L52.84 14.01L52.84 14.43Q52.84 14.64 52.63 14.64L52.63 14.64L48.83 14.64Q48.62 14.64 48.62 14.43L48.62 14.43L48.62 14.01Q48.62 13.80 48.84 13.80L48.84 13.80Q49.22 13.81 49.40 13.44L49.40 13.44Q49.57 13.10 49.57 12.55L49.57 12.55Q49.57 12.51 49.57 12.47L49.57 12.47L49.57 10.36Q49.57 10.32 49.57 10.25L49.57 10.25Q49.57 10.04 49.57 9.92Q49.57 9.81 49.55 9.62Q49.53 9.43 49.50 9.32Q49.46 9.21 49.39 9.08Q49.31 8.94 49.21 8.87Q49.10 8.80 48.94 8.75Q48.77 8.70 48.56 8.70L48.56 8.70Q48.06 8.70 47.55 9.06Q47.04 9.43 46.86 9.89L46.86 9.89L46.86 12.47Q46.86 13.06 47.13 13.43Q47.39 13.80 47.89 13.80L47.89 13.80L47.92 13.80Q48.13 13.80 48.13 14.01L48.13 14.01L48.13 14.43Q48.13 14.64 47.91 14.64L47.91 14.64L43.84 14.64Q43.63 14.64 43.63 14.43Z"></path></g><!----><!----></svg>